<?xml version="1.0" standalone="no"?>
<!DOCTYPE svg PUBLIC "-//W3C//DTD SVG 20010904//EN"
 "http://www.w3.org/TR/2001/REC-SVG-20010904/DTD/svg10.dtd">
<svg version="1.0" xmlns="http://www.w3.org/2000/svg"
 width="72.000000pt" height="40.000000pt" viewBox="0 0 72.000000 40.000000"
 preserveAspectRatio="xMidYMid meet">

<g transform="translate(0.000000,40.000000) scale(0.100000,-0.100000)"
fill="#000000" stroke="none">
<path d="M30 323 l1 -58 15 35 c19 45 43 70 65 70 15 0 19 -10 21 -57 l3 -58
35 0 35 0 3 58 c2 47 6 57 21 57 22 0 55 -36 69 -75 10 -28 10 -25 11 28 l1
57 -140 0 -140 0 0 -57z"/>
<path d="M496 359 c-23 -18 -27 -28 -24 -63 l3 -41 55 -3 55 -3 -28 28 c-45
48 -32 93 28 93 35 0 57 -19 73 -65 10 -28 10 -26 11 25 0 34 -3 50 -8 41 -6
-10 -13 -11 -29 -2 -35 19 -106 13 -136 -10z"/>
<path d="M260 217 c0 -16 3 -17 14 -8 11 9 15 9 19 -1 3 -7 6 -4 6 7 1 14 -5
21 -19 21 -13 0 -20 -7 -20 -19z"/>
<path d="M345 230 c-8 -14 3 -30 21 -30 8 0 14 9 14 20 0 21 -24 28 -35 10z
m25 -10 c0 -5 -4 -10 -10 -10 -5 0 -10 5 -10 10 0 6 5 10 10 10 6 0 10 -4 10
-10z"/>
<path d="M420 218 c0 -19 2 -20 10 -8 13 19 13 30 0 30 -5 0 -10 -10 -10 -22z"/>
<path d="M447 225 c-4 -8 -2 -17 3 -20 6 -4 10 3 10 14 0 25 -6 27 -13 6z"/>
<path d="M128 118 c-3 -46 -6 -53 -28 -59 -14 -4 18 -7 70 -7 52 0 84 3 70 7
-22 6 -25 13 -28 59 l-3 52 -39 0 -39 0 -3 -52z"/>
<path d="M463 109 c-1 -50 1 -58 12 -49 10 8 19 8 34 1 11 -6 42 -11 70 -11
66 0 111 35 111 86 l0 34 -50 0 -50 0 16 -25 c33 -51 -7 -97 -71 -81 -26 7
-55 51 -55 86 0 11 -3 20 -7 20 -5 0 -9 -27 -10 -61z"/>
</g>
</svg>
